<?xml version="1.0" encoding="UTF-8"?>
<svg xmlns="http://www.w3.org/2000/svg" xmlns:xlink="http://www.w3.org/1999/xlink" width="377.545502pt" height="377.546997pt" viewBox="0 0 377.545502 377.546997" version="1.1">
<defs>
<clipPath id="clip1">
  <path d="M 0 0 L 377.546875 0 L 377.546875 377.546875 L 0 377.546875 Z M 0 0 "/>
</clipPath>
</defs>
<g id="surface1">
<g clip-path="url(#clip1)" clip-rule="nonzero">
<path style=" stroke:none;fill-rule:nonzero;fill:rgb(97.253418%,29.411316%,5.882263%);fill-opacity:1;" d="M 0 188.773438 C 0 84.515625 84.519531 0 188.773438 0 C 293.039062 0 377.546875 84.515625 377.546875 188.773438 C 377.546875 293.035156 293.035156 377.546875 188.773438 377.546875 C 84.519531 377.546875 0 293.035156 0 188.773438 Z M 0 188.773438 "/>
</g>
<path style=" stroke:none;fill-rule:nonzero;fill:rgb(100%,100%,100%);fill-opacity:1;" d="M 119.75 129.128906 C 119.75 140.410156 110.601562 149.542969 99.316406 149.542969 C 88.046875 149.542969 78.917969 140.410156 78.917969 129.128906 C 78.917969 117.855469 88.046875 108.710938 99.316406 108.710938 C 110.601562 108.710938 119.75 117.855469 119.75 129.128906 Z M 119.75 129.128906 "/>
<path style=" stroke:none;fill-rule:nonzero;fill:rgb(100%,100%,100%);fill-opacity:1;" d="M 215.824219 160.207031 L 238.027344 160.207031 L 238.027344 266.757812 L 215.824219 266.757812 Z M 215.824219 160.207031 "/>
<path style=" stroke:none;fill-rule:nonzero;fill:rgb(100%,100%,100%);fill-opacity:1;" d="M 71.539062 160.207031 L 93.734375 160.207031 L 93.734375 266.757812 L 71.539062 266.757812 Z M 71.539062 160.207031 "/>
<path style=" stroke:none;fill-rule:nonzero;fill:rgb(100%,100%,100%);fill-opacity:1;" d="M 49.339844 160.207031 L 93.734375 160.207031 L 93.734375 182.402344 L 49.339844 182.402344 Z M 49.339844 160.207031 "/>
<path style=" stroke:none;fill-rule:nonzero;fill:rgb(100%,100%,100%);fill-opacity:1;" d="M 107.054688 160.207031 L 129.253906 160.207031 L 129.253906 266.757812 L 107.054688 266.757812 Z M 107.054688 160.207031 "/>
<path style=" stroke:none;fill-rule:nonzero;fill:rgb(100%,100%,100%);fill-opacity:1;" d="M 107.054688 160.207031 L 147.011719 160.207031 L 147.011719 182.402344 L 107.054688 182.402344 Z M 107.054688 160.207031 "/>
<path style=" stroke:none;fill-rule:nonzero;fill:rgb(100%,100%,100%);fill-opacity:1;" d="M 277.980469 164.644531 L 300.179688 164.644531 L 300.179688 266.757812 L 277.980469 266.757812 Z M 277.980469 164.644531 "/>
<path style=" stroke:none;fill-rule:nonzero;fill:rgb(100%,100%,100%);fill-opacity:1;" d="M 203.84375 195.515625 C 203.84375 175.007812 195.753906 160.207031 162.09375 160.207031 L 159.289062 160.207031 L 159.207031 182.402344 L 161.082031 182.402344 C 174.507812 182.402344 179.996094 185.660156 179.996094 198.078125 C 180.011719 210.214844 174.242188 213.480469 161.375 213.480469 L 142.574219 213.480469 L 142.574219 232.429688 L 158.230469 232.425781 L 177.648438 267.957031 L 202.742188 267.945312 L 181.402344 229.632812 C 199.171875 224 203.84375 210.238281 203.84375 195.515625 Z M 203.84375 195.515625 "/>
<path style=" stroke:none;fill-rule:nonzero;fill:rgb(100%,100%,100%);fill-opacity:1;" d="M 249.125 160.207031 L 329.039062 160.207031 L 329.039062 182.402344 L 249.125 182.402344 Z M 249.125 160.207031 "/>
</g>
</svg>
